<svg width="1439" height="554" viewBox="0 0 1439 554" fill="none" xmlns="http://www.w3.org/2000/svg">
<g clip-path="url(#clip0_3043_21030)">
<rect width="1440" height="554" fill="#EEF4FF"/>
<path d="M143.807 30.713H74.8906C74.8906 30.713 84.8557 24.3896 100.377 27.5513C96.6823 14.3017 106.395 6.83414 115.787 5.69002C125.346 4.5213 134.541 9.90973 128.915 22.4089C147.529 13.3667 143.807 30.713 143.807 30.713Z" fill="white"/>
<path d="M143.806 30.713H105.531C106.154 23.1594 107.838 11.9396 115.478 5.69002C125.142 4.5213 134.439 9.90973 128.751 22.4089C147.569 13.3667 143.806 30.713 143.806 30.713Z" fill="white"/>
<path d="M1439.7 316.745H1370.78C1370.78 316.745 1380.75 310.421 1396.27 313.583C1392.57 300.333 1402.29 292.866 1411.68 291.722C1421.24 290.553 1430.43 295.941 1424.81 308.441C1443.42 299.398 1439.7 316.745 1439.7 316.745Z" fill="white"/>
<path d="M1439.7 316.745H1401.42C1402.04 309.191 1403.73 297.971 1411.37 291.722C1421.03 290.553 1430.33 295.941 1424.64 308.441C1443.46 299.398 1439.7 316.745 1439.7 316.745Z" fill="white"/>
<path d="M432.309 181.111C436.737 182.678 432.972 187.829 428.275 187.829H290.021C280.909 187.829 272.537 180.984 274.018 171.993C279.127 140.858 319.143 151.387 327.503 160.146C333.151 132.454 377.855 130.537 382.192 167.058C389.269 151.482 403.795 149.531 414.073 154.847C423.343 159.626 429.158 170.31 422.991 182.244C427.288 180.459 430.257 180.385 432.309 181.111Z" fill="white"/>
<path d="M723.872 30.8469C720.642 32.0367 723.426 35.8061 726.867 35.8061H828.22C834.967 35.8061 841.158 30.7351 840.072 24.0767C836.322 1.01628 806.958 8.81444 800.824 15.3022C796.68 -5.20812 763.875 -6.62772 760.693 20.4218C755.5 8.8851 744.84 7.43981 737.298 11.3774C730.496 14.9168 726.229 22.8306 730.755 31.6694C727.569 30.3341 725.378 30.2918 723.872 30.8469Z" fill="white"/>
<path d="M1418.13 95.7148H1357.91C1351.57 104.689 1340.34 110.651 1327.53 110.651C1319.04 110.651 1311.26 108.032 1305.12 103.651C1300.51 107.952 1294.02 110.651 1286.8 110.651C1279.59 110.651 1273.11 107.952 1268.5 103.661C1260.21 110.228 1249.28 114.226 1237.28 114.226C1221.01 114.226 1206.68 106.874 1198.27 95.7047H1131.34C1131.34 95.7047 1143.15 90.6085 1160.35 87.6072C1158.1 84.6663 1156.8 81.1211 1156.8 77.304C1156.8 67.1317 1166.08 58.8932 1177.53 58.8932C1177.85 58.8932 1178.19 58.9033 1178.5 58.9134C1183.49 59.1148 1188 60.8975 1191.46 63.6873C1196.06 44.9643 1214.82 30.9447 1237.28 30.9447C1242.49 30.9447 1247.5 31.7101 1252.19 33.1101C1256.5 17.2977 1272.54 5.53418 1291.67 5.53418C1302.52 5.53418 1312.37 9.30094 1319.67 15.4647C1327.44 22.0314 1332.3 31.3073 1332.3 41.6004C1332.3 43.524 1332.13 45.3974 1331.81 47.2505C1349 49.0634 1362.46 61.683 1363.33 77.2436C1387.22 80.406 1407.26 86.5396 1418.12 95.7249L1418.13 95.7148Z" fill="white"/>
<path d="M172.17 441.815H15.636C8.29668 436.924 0.53141 429.645 0.0235543 420.644C-0.943009 403.321 28.1194 401.397 35.3768 423.856C74.6128 361.615 108.017 404.942 108.017 404.942C108.017 404.942 157.41 389.848 139.979 434.753C160.457 421.903 175.348 425.303 172.17 441.815Z" fill="white"/>
<path d="M1056.69 413.449H840.049H815.883L820.009 411.43C831.31 405.9 843.263 401.815 855.585 399.271C846.81 393.014 847.044 376.112 863.353 371.688C878.889 367.474 890.109 377.434 893.13 392.375C895.863 388.033 901.329 377.817 918.16 377.817C932.419 377.817 942.183 389.695 944.916 394.677C939.737 382.673 939.823 358.742 981.597 359.048C1023.37 359.355 1017.99 389.313 1010.08 404.254C1031.83 404.254 1050.21 410.384 1056.69 413.449Z" fill="white"/>
<path d="M685.624 554.45H468.987H444.82L448.946 552.431C460.248 546.901 472.201 542.816 484.523 540.272C475.748 534.015 475.981 517.113 492.291 512.689C507.826 508.475 519.047 518.436 522.067 533.377C524.801 529.035 530.267 518.819 547.097 518.819C561.357 518.819 571.12 530.697 573.853 535.678C568.675 523.674 568.761 499.743 610.535 500.05C652.309 500.356 646.929 530.315 639.017 545.256C660.767 545.256 679.151 551.385 685.624 554.45Z" fill="white"/>
</g>
<defs>
<clipPath id="clip0_3043_21030">
<rect width="1440" height="554" fill="white"/>
</clipPath>
</defs>
</svg>
